<svg width="1024" height="1024" viewBox="0 0 1024 1024" xmlns="http://www.w3.org/2000/svg">
  <defs>
    <linearGradient id="bgGrad" x1="0%" y1="0%" x2="100%" y2="100%">
      <stop offset="0%" style="stop-color:#8A4FFF;stop-opacity:1" />
      <stop offset="100%" style="stop-color:#FF8FAB;stop-opacity:1" />
    </linearGradient>
    <filter id="glow" x="-20%" y="-20%" width="140%" height="140%">
      <feGaussianBlur stdDeviation="20" result="blur" />
      <feComposite in="SourceGraphic" in2="blur" operator="over" />
    </filter>
  </defs>
  
  <!-- Background -->
  <rect width="1024" height="1024" fill="url(#bgGrad)" />
  
  <!-- Heart Shape -->
  <path d="M512 820 C 512 820, 180 540, 180 340 C 180 180, 340 120, 450 180 C 512 215, 512 215, 574 180 C 684 120, 844 180, 844 340 C 844 540, 512 820, 512 820 Z" 
        fill="white" opacity="0.95" />
        
  <!-- Sparkle Top Right -->
  <path d="M750 250 L 770 200 L 790 250 L 840 270 L 790 290 L 770 340 L 750 290 L 700 270 Z" 
        fill="white" />
        
  <!-- Sparkle Bottom Left (Smaller) -->
  <path d="M250 650 L 260 620 L 270 650 L 300 660 L 270 670 L 260 700 L 250 670 L 220 660 Z" 
        fill="white" opacity="0.8" />

</svg>